<svg xmlns="http://www.w3.org/2000/svg" width="33.23" height="33.431" viewBox="0 0 33.23 33.431">
  <g id="Group_237" data-name="Group 237" transform="translate(0.487 0.487)">
    <line id="Line_5" data-name="Line 5" y1="5.182" x2="3.523" transform="translate(3.505 12.739)" fill="none" stroke="#fff" stroke-linejoin="round" stroke-width="2"/>
    <line id="Line_6" data-name="Line 6" x1="3.481" y1="3.914" transform="translate(3.36 5.959)" fill="none" stroke="#fff" stroke-linejoin="round" stroke-width="2"/>
    <line id="Line_7" data-name="Line 7" x1="7.231" y2="6.471" transform="translate(9.406 3.548)" fill="none" stroke="#fff" stroke-linejoin="round" stroke-width="2"/>
    <line id="Line_8" data-name="Line 8" x2="3.211" y2="2.462" transform="translate(23.871 20.084)" fill="none" stroke="#fff" stroke-linejoin="round" stroke-width="2"/>
    <line id="Line_9" data-name="Line 9" y1="1.68" x2="8.766" transform="translate(4.323 17.584)" fill="none" stroke="#fff" stroke-linejoin="round" stroke-width="2"/>
    <line id="Line_10" data-name="Line 10" x1="8.426" y1="8.029" transform="translate(3.579 20.831)" fill="none" stroke="#fff" stroke-linejoin="round" stroke-width="2"/>
    <line id="Line_11" data-name="Line 11" x1="2.685" y2="6.451" transform="translate(14.029 21.998)" fill="none" stroke="#fff" stroke-linejoin="round" stroke-width="2"/>
    <g id="Group_15" data-name="Group 15" transform="translate(0 0)">
      <g id="Group_237-2" data-name="Group 237">
        <path id="Path_7" data-name="Path 7" d="M37.43,26.169a6.077,6.077,0,1,1-6.076-6.077A6.076,6.076,0,0,1,37.43,26.169Z" transform="translate(-12.305 -9.781)" fill="none" stroke="#fff" stroke-linejoin="round" stroke-width="2"/>
        <path id="Path_8" data-name="Path 8" d="M58.4,11.089a1.821,1.821,0,1,1-1.82-1.82A1.821,1.821,0,0,1,58.4,11.089Z" transform="translate(-26.657 -4.512)" fill="none" stroke="#fff" stroke-linejoin="round" stroke-width="2"/>
        <path id="Path_9" data-name="Path 9" d="M4.641,6.954a1.821,1.821,0,1,1-1.82-1.82A1.821,1.821,0,0,1,4.641,6.954Z" transform="translate(-0.487 -2.499)" fill="none" stroke="#fff" stroke-linejoin="round" stroke-width="2"/>
        <path id="Path_10" data-name="Path 10" d="M35.153,2.82A1.821,1.821,0,1,1,33.333,1,1.821,1.821,0,0,1,35.153,2.82Z" transform="translate(-15.34 -0.487)" fill="none" stroke="#fff" stroke-linejoin="round" stroke-width="2"/>
        <path id="Path_11" data-name="Path 11" d="M4.866,36.083a1.821,1.821,0,1,1-1.82-1.821A1.821,1.821,0,0,1,4.866,36.083Z" transform="translate(-0.596 -16.679)" fill="none" stroke="#fff" stroke-linejoin="round" stroke-width="2"/>
        <path id="Path_12" data-name="Path 12" d="M15.78,20.162a1.821,1.821,0,1,1-1.82-1.821A1.821,1.821,0,0,1,15.78,20.162Z" transform="translate(-5.909 -8.928)" fill="none" stroke="#fff" stroke-linejoin="round" stroke-width="2"/>
        <path id="Path_13" data-name="Path 13" d="M26.037,56.97a1.82,1.82,0,1,1-1.82-1.821A1.82,1.82,0,0,1,26.037,56.97Z" transform="translate(-10.902 -26.846)" fill="none" stroke="#fff" stroke-linejoin="round" stroke-width="2"/>
        <path id="Path_14" data-name="Path 14" d="M55.763,44.247a1.821,1.821,0,1,1-1.82-1.82A1.82,1.82,0,0,1,55.763,44.247Z" transform="translate(-25.373 -20.653)" fill="none" stroke="#fff" stroke-linejoin="round" stroke-width="2"/>
        <line id="Line_12" data-name="Line 12" y1="1.602" x2="12.056" transform="translate(4.132 2.574)" fill="none" stroke="#fff" stroke-linejoin="round" stroke-width="2"/>
        <line id="Line_13" data-name="Line 13" x1="8.499" y1="3.024" transform="translate(19.709 2.944)" fill="none" stroke="#fff" stroke-linejoin="round" stroke-width="2"/>
        <line id="Line_14" data-name="Line 14" y1="13.392" x2="1.018" transform="translate(28.767 8.392)" fill="none" stroke="#fff" stroke-linejoin="round" stroke-width="2"/>
        <line id="Line_15" data-name="Line 15" x2="0.465" y2="6.18" transform="translate(18.129 4.149)" fill="none" stroke="#fff" stroke-linejoin="round" stroke-width="2"/>
      </g>
    </g>
  </g>
</svg>
