<svg xmlns="http://www.w3.org/2000/svg" width="17.5" height="20" viewBox="0 0 17.5 20">
  <path id="utensils-solid" d="M16.25,0c-.625,0-5,1.25-5,6.875V11.25a2.5,2.5,0,0,0,2.5,2.5H15v5a1.25,1.25,0,0,0,2.5,0V1.25A1.249,1.249,0,0,0,16.25,0ZM2.5.625A.625.625,0,0,0,1.266.488L.082,5.813A3.44,3.44,0,0,0,3.125,9.984V18.75a1.25,1.25,0,0,0,2.5,0V9.984A3.44,3.44,0,0,0,8.668,5.813L7.484.488A.625.625,0,0,0,6.25.625V5.867a.383.383,0,0,1-.766.031L5,.57a.623.623,0,0,0-1.242,0L3.27,5.9A.383.383,0,0,1,2.5,5.867V.625ZM4.387,6.563H4.363l.012-.027Z" fill="#fff"/>
</svg>
