<svg xmlns="http://www.w3.org/2000/svg" width="30" height="30" viewBox="0 0 30 30">
  <g id="Group_228" data-name="Group 228" transform="translate(-469.885 -409.886)">
    <circle id="Ellipse_7" data-name="Ellipse 7" cx="15" cy="15" r="15" transform="translate(469.885 409.885)" fill="#1977f3"/>
    <path id="_8535168491656048289" data-name="8535168491656048289" d="M39.517,23.843A3.58,3.58,0,0,1,41.92,23c.905-.008,1.811,0,2.716,0,0,.957,0,1.91,0,2.867H42.88a.807.807,0,0,0-.818.627c-.008.639,0,1.278,0,1.918.857,0,1.715,0,2.573,0-.064.925-.179,1.846-.314,2.76-.758.008-1.517,0-2.275,0-.008,2.728,0,5.451,0,8.179-1.128,0-2.251,0-3.379,0-.02-2.728,0-5.455-.012-8.183-.548,0-1.1,0-1.648,0,0-.917,0-1.834,0-2.748.548-.008,1.1,0,1.648,0,.016-.889-.016-1.783.016-2.672A2.912,2.912,0,0,1,39.517,23.843Z" transform="translate(444.066 393.704)" fill="#fff"/>
  </g>
</svg>
