<svg id="Group_11" data-name="Group 11" xmlns="http://www.w3.org/2000/svg" xmlns:xlink="http://www.w3.org/1999/xlink" width="56.923" height="74" viewBox="0 0 56.923 74">
  <defs>
    <clipPath id="clip-path">
      <rect id="Rectangle_14" data-name="Rectangle 14" width="56.923" height="74" fill="none" stroke="#9ec41e" stroke-width="2"/>
    </clipPath>
  </defs>
  <g id="Group_10" data-name="Group 10" clip-path="url(#clip-path)">
    <path id="Path_1" data-name="Path 1" d="M17,50.808H44.038a4.269,4.269,0,0,0,4.269-4.269V38" transform="translate(7.192 16.077)" fill="none" stroke="#9ec41e" stroke-linecap="round" stroke-linejoin="round" stroke-width="2"/>
    <path id="Path_2" data-name="Path 2" d="M1,62.192V6.692A5.693,5.693,0,0,1,6.692,1H50.808a4.269,4.269,0,0,1,4.269,4.269V53.654a4.269,4.269,0,0,1-4.269,4.269H5.269a4.269,4.269,0,0,0,0,8.538h7.115" transform="translate(0.423 0.423)" fill="none" stroke="#9ec41e" stroke-linecap="round" stroke-linejoin="round" stroke-width="2"/>
    <path id="Path_3" data-name="Path 3" d="M20.385,41V55.231l-5.692-2.846L9,55.231V41" transform="translate(3.808 17.346)" fill="none" stroke="#9ec41e" stroke-linecap="round" stroke-linejoin="round" stroke-width="2"/>
    <line id="Line_1" data-name="Line 1" x2="19.923" transform="translate(21.346 18.5)" fill="none" stroke="#9ec41e" stroke-linecap="round" stroke-linejoin="round" stroke-width="2"/>
    <line id="Line_2" data-name="Line 2" x2="19.923" transform="translate(21.346 27.038)" fill="none" stroke="#9ec41e" stroke-linecap="round" stroke-linejoin="round" stroke-width="2"/>
    <line id="Line_3" data-name="Line 3" x2="8.538" transform="translate(27.038 46.962)" fill="none" stroke="#9ec41e" stroke-linecap="round" stroke-linejoin="round" stroke-width="2"/>
    <line id="Line_4" data-name="Line 4" y2="56.923" transform="translate(9.962 1.423)" fill="none" stroke="#9ec41e" stroke-linecap="round" stroke-linejoin="round" stroke-width="2"/>
  </g>
</svg>
