<svg xmlns="http://www.w3.org/2000/svg" width="79.483" height="64.734" viewBox="0 0 79.483 64.734">
  <g id="Group_20" data-name="Group 20" transform="translate(0.124 0.5)">
    <g id="Group_21" data-name="Group 21" transform="translate(0.246 1)">
      <path id="Path_20" data-name="Path 20" d="M26.3,49.554c.586,1.667,3.6,3.912,7.687,2.49L35.32,46.4c1.812,1.643,5.17.247,5.17.247L42.856,33.7" transform="translate(4.78 5.309)" fill="none" stroke="#fff" stroke-linejoin="round" stroke-width="3"/>
      <path id="Path_21" data-name="Path 21" d="M45.445,37.574c.76.5,2.875,1.828,3.793,2.391a1.819,1.819,0,0,0,1.834.057c2.247-1.508,21.6-14.818,21.53-25.929A13.2,13.2,0,0,0,59.329,1a13.848,13.848,0,0,0-9.343,3.99,13.86,13.86,0,0,0-9.4-3.865A13.2,13.2,0,0,0,27.5,14.393c.026,4.058,2.367,8.624,6.955,13.573.939,1.13,1.7,1.912,1.929,2.175" transform="translate(5.011 -1)" fill="none" stroke="#fff" stroke-linejoin="round" stroke-width="3"/>
      <path id="Path_22" data-name="Path 22" d="M35.97,19.911,30.647,34.9,45.7,23.2c1.38-1.052,4.352-1.8,7.041,1.354,2.1,2.469,1.943,5.873.048,7.421L38.87,43.987,28.151,55.4c-1.758,1.917-3.87,3.3-8,3.557l-18.993.126" transform="translate(-0.07 2.649)" fill="none" stroke="#fff" stroke-linejoin="round" stroke-width="3"/>
      <path id="Path_23" data-name="Path 23" d="M.246,39.712,8,37.74,22.971,17.369s7.272-5.048,9.9-6.756" transform="translate(-0.246 0.855)" fill="none" stroke="#fff" stroke-linejoin="round" stroke-width="3"/>
    </g>
  </g>
</svg>
