<svg id="Group_286" data-name="Group 286" xmlns="http://www.w3.org/2000/svg" xmlns:xlink="http://www.w3.org/1999/xlink" width="39.931" height="20" viewBox="0 0 39.931 20">
  <defs>
    <clipPath id="clip-path">
      <rect id="Rectangle_71" data-name="Rectangle 71" width="39.931" height="20" fill="none"/>
    </clipPath>
  </defs>
  <g id="Group_278" data-name="Group 278" transform="translate(0 0)" clip-path="url(#clip-path)">
    <path id="Path_25" data-name="Path 25" d="M39.723,0a.769.769,0,0,1,.209.613,2.119,2.119,0,0,1-.26,1c-2.743,4.941-10.59,5.333-14.764,5.333-.785,0-4.91-.026-6.893-.041-1.892-.069-4.008-.219-5.553-.219-4.646,0-11.9,2.145-11.9,5.628,0,.006,0,.027,0,.059,0,.3.121,1.66,2.647,1.66,4.362,0,12.607-5.5,20.718-5.5,2.893,0,4.822,1.164,4.822,2.6,0,3.1-6.412,3.933-7.362,4.153a2.868,2.868,0,0,0-2.318,2.531c0,1.5,1.659,1.855,1.965,1.965A4.071,4.071,0,0,1,19.5,20c-3.457,0-3.529-2.27-3.529-2.542,0-3.654,7.432-3.744,8.733-4,2.39-.4,3.64-1.057,3.64-2.257a2.019,2.019,0,0,0-2.191-1.755C19.859,9.449,13.5,15.7,5.317,15.7H5.083C3.713,15.7,0,15.607,0,12.411,0,3.333,31.4,6.452,38.569,1.6A2.575,2.575,0,0,0,39.723,0" transform="translate(0 0)"/>
  </g>
</svg>
