<svg xmlns="http://www.w3.org/2000/svg" width="30" height="30" viewBox="0 0 30 30">
  <g id="Group_229" data-name="Group 229" transform="translate(-470 -410)">
    <circle id="Ellipse_7" data-name="Ellipse 7" cx="15" cy="15" r="15" transform="translate(470 410)" fill="#cd201f"/>
    <path id="youtube" d="M27.882,65.455a1.662,1.662,0,0,0-1.169-1.177A39.273,39.273,0,0,0,21.546,64a39.273,39.273,0,0,0-5.167.278,1.662,1.662,0,0,0-1.169,1.177,18.711,18.711,0,0,0,0,6.408,1.637,1.637,0,0,0,1.169,1.158,39.274,39.274,0,0,0,5.167.278,39.274,39.274,0,0,0,5.167-.278,1.637,1.637,0,0,0,1.169-1.158,18.711,18.711,0,0,0,0-6.408Zm-7.689,5.171V66.693l3.457,1.967Z" transform="translate(463.454 356.35)" fill="#fff"/>
  </g>
</svg>
